<mxfile host="app.diagrams.net" agent="Mozilla/5.0 (Windows NT 10.0; Win64; x64) AppleWebKit/537.36 (KHTML, like Gecko) Chrome/134.0.0.0 Safari/537.36" version="26.1.3">
  <diagram name="Page-1" id="QdB6r3KNF4vIn0p_jMWu">
    <mxGraphModel dx="1153" dy="724" grid="1" gridSize="10" guides="1" tooltips="1" connect="1" arrows="1" fold="1" page="1" pageScale="1" pageWidth="850" pageHeight="1100" math="0" shadow="0">
      <root>
        <mxCell id="0" />
        <mxCell id="1" parent="0" />
        <mxCell id="rFmdBpEFO_9901PlKz6e-1" value="Utilizator" style="shape=umlActor;verticalLabelPosition=bottom;verticalAlign=top;html=1;" vertex="1" parent="1">
          <mxGeometry x="70" y="30" width="30" height="60" as="geometry" />
        </mxCell>
        <mxCell id="rFmdBpEFO_9901PlKz6e-7" style="edgeStyle=orthogonalEdgeStyle;rounded=0;orthogonalLoop=1;jettySize=auto;html=1;" edge="1" parent="1" source="rFmdBpEFO_9901PlKz6e-2">
          <mxGeometry relative="1" as="geometry">
            <mxPoint x="115" y="110" as="targetPoint" />
          </mxGeometry>
        </mxCell>
        <mxCell id="rFmdBpEFO_9901PlKz6e-2" value="Tester" style="shape=umlActor;verticalLabelPosition=bottom;verticalAlign=top;html=1;" vertex="1" parent="1">
          <mxGeometry x="100" y="150" width="30" height="50" as="geometry" />
        </mxCell>
        <mxCell id="rFmdBpEFO_9901PlKz6e-6" style="edgeStyle=orthogonalEdgeStyle;rounded=0;orthogonalLoop=1;jettySize=auto;html=1;" edge="1" parent="1" source="rFmdBpEFO_9901PlKz6e-3">
          <mxGeometry relative="1" as="geometry">
            <mxPoint x="85" y="110" as="targetPoint" />
          </mxGeometry>
        </mxCell>
        <mxCell id="rFmdBpEFO_9901PlKz6e-3" value="Programmer" style="shape=umlActor;verticalLabelPosition=bottom;verticalAlign=top;html=1;" vertex="1" parent="1">
          <mxGeometry x="70" y="300" width="30" height="60" as="geometry" />
        </mxCell>
        <mxCell id="rFmdBpEFO_9901PlKz6e-5" style="edgeStyle=orthogonalEdgeStyle;rounded=0;orthogonalLoop=1;jettySize=auto;html=1;" edge="1" parent="1" source="rFmdBpEFO_9901PlKz6e-4">
          <mxGeometry relative="1" as="geometry">
            <mxPoint x="55" y="110" as="targetPoint" />
          </mxGeometry>
        </mxCell>
        <mxCell id="rFmdBpEFO_9901PlKz6e-4" value="Admin&lt;div&gt;&lt;br&gt;&lt;/div&gt;" style="shape=umlActor;verticalLabelPosition=bottom;verticalAlign=top;html=1;" vertex="1" parent="1">
          <mxGeometry x="40" y="490" width="30" height="60" as="geometry" />
        </mxCell>
        <mxCell id="rFmdBpEFO_9901PlKz6e-11" value="" style="line;strokeWidth=1;fillColor=none;align=left;verticalAlign=middle;spacingTop=-1;spacingLeft=3;spacingRight=3;rotatable=0;labelPosition=right;points=[];portConstraint=eastwest;strokeColor=inherit;" vertex="1" parent="1">
          <mxGeometry x="100" y="337" width="140" height="8" as="geometry" />
        </mxCell>
        <mxCell id="rFmdBpEFO_9901PlKz6e-12" value="" style="line;strokeWidth=1;fillColor=none;align=left;verticalAlign=middle;spacingTop=-1;spacingLeft=3;spacingRight=3;rotatable=0;labelPosition=right;points=[];portConstraint=eastwest;strokeColor=inherit;" vertex="1" parent="1">
          <mxGeometry x="90" y="447.5" width="220" height="150" as="geometry" />
        </mxCell>
        <mxCell id="rFmdBpEFO_9901PlKz6e-13" value="Manage Accounts" style="strokeWidth=2;html=1;shape=mxgraph.flowchart.start_1;whiteSpace=wrap;BackgroundColor=#FFCCFF;fillColor=#f8cecc;strokeColor=#b85450;" vertex="1" parent="1">
          <mxGeometry x="290" y="500" width="140" height="45" as="geometry" />
        </mxCell>
        <mxCell id="rFmdBpEFO_9901PlKz6e-17" value="&amp;lt;&amp;lt;extend&amp;gt;&amp;gt;" style="html=1;verticalAlign=bottom;labelBackgroundColor=none;endArrow=open;endFill=0;dashed=1;rounded=0;entryX=0.257;entryY=0.854;entryDx=0;entryDy=0;entryPerimeter=0;" edge="1" parent="1" target="rFmdBpEFO_9901PlKz6e-13">
          <mxGeometry width="160" relative="1" as="geometry">
            <mxPoint x="260" y="617.5" as="sourcePoint" />
            <mxPoint x="350" y="597.5" as="targetPoint" />
          </mxGeometry>
        </mxCell>
        <mxCell id="rFmdBpEFO_9901PlKz6e-18" value="Assign Roles" style="ellipse;whiteSpace=wrap;html=1;fillColor=#dae8fc;strokeColor=#6c8ebf;" vertex="1" parent="1">
          <mxGeometry x="180" y="620" width="160" height="30" as="geometry" />
        </mxCell>
        <mxCell id="rFmdBpEFO_9901PlKz6e-19" value="Delete Accounts" style="ellipse;whiteSpace=wrap;html=1;fillColor=#dae8fc;strokeColor=#6c8ebf;" vertex="1" parent="1">
          <mxGeometry x="380" y="620" width="160" height="30" as="geometry" />
        </mxCell>
        <mxCell id="rFmdBpEFO_9901PlKz6e-21" value="&amp;lt;&amp;lt;extend&amp;gt;&amp;gt;" style="html=1;verticalAlign=bottom;labelBackgroundColor=none;endArrow=open;endFill=0;dashed=1;rounded=0;entryX=0.716;entryY=0.906;entryDx=0;entryDy=0;entryPerimeter=0;exitX=0.5;exitY=0;exitDx=0;exitDy=0;" edge="1" parent="1" target="rFmdBpEFO_9901PlKz6e-13">
          <mxGeometry width="160" relative="1" as="geometry">
            <mxPoint x="450" y="617.5" as="sourcePoint" />
            <mxPoint x="336" y="548.5" as="targetPoint" />
            <Array as="points" />
          </mxGeometry>
        </mxCell>
        <mxCell id="rFmdBpEFO_9901PlKz6e-22" value="Login" style="ellipse;whiteSpace=wrap;html=1;fillColor=#fff2cc;strokeColor=#d6b656;" vertex="1" parent="1">
          <mxGeometry x="560" y="45" width="90" height="30" as="geometry" />
        </mxCell>
        <mxCell id="rFmdBpEFO_9901PlKz6e-23" value="" style="line;strokeWidth=1;fillColor=none;align=left;verticalAlign=middle;spacingTop=-1;spacingLeft=3;spacingRight=3;rotatable=0;labelPosition=right;points=[];portConstraint=eastwest;strokeColor=inherit;" vertex="1" parent="1">
          <mxGeometry x="140" y="56" width="420" height="8" as="geometry" />
        </mxCell>
        <mxCell id="rFmdBpEFO_9901PlKz6e-25" value="&amp;lt;&amp;lt;include&amp;gt;&amp;gt;" style="html=1;verticalAlign=bottom;labelBackgroundColor=none;endArrow=open;endFill=0;dashed=1;rounded=0;exitX=0.961;exitY=0.674;exitDx=0;exitDy=0;exitPerimeter=0;entryX=1;entryY=1;entryDx=0;entryDy=0;" edge="1" parent="1" source="rFmdBpEFO_9901PlKz6e-13" target="rFmdBpEFO_9901PlKz6e-22">
          <mxGeometry width="160" relative="1" as="geometry">
            <mxPoint x="510" y="340" as="sourcePoint" />
            <mxPoint x="670" y="340" as="targetPoint" />
            <Array as="points">
              <mxPoint x="640" y="530" />
              <mxPoint x="640" y="310" />
            </Array>
          </mxGeometry>
        </mxCell>
        <mxCell id="rFmdBpEFO_9901PlKz6e-26" value="View Bug List and Manage It." style="strokeWidth=2;html=1;shape=mxgraph.flowchart.start_1;whiteSpace=wrap;BackgroundColor=#FFCCFF;fillColor=#f8cecc;strokeColor=#b85450;" vertex="1" parent="1">
          <mxGeometry x="230" y="230" width="170" height="45" as="geometry" />
        </mxCell>
        <mxCell id="rFmdBpEFO_9901PlKz6e-27" value="Add a Bug" style="ellipse;whiteSpace=wrap;html=1;fillColor=#dae8fc;strokeColor=#6c8ebf;" vertex="1" parent="1">
          <mxGeometry x="290" y="150" width="160" height="30" as="geometry" />
        </mxCell>
        <mxCell id="rFmdBpEFO_9901PlKz6e-28" value="&amp;lt;&amp;lt;extend&amp;gt;&amp;gt;" style="html=1;verticalAlign=bottom;labelBackgroundColor=none;endArrow=open;endFill=0;dashed=1;rounded=0;exitX=0.603;exitY=1.078;exitDx=0;exitDy=0;exitPerimeter=0;entryX=0.5;entryY=0;entryDx=0;entryDy=0;entryPerimeter=0;" edge="1" parent="1" source="rFmdBpEFO_9901PlKz6e-27" target="rFmdBpEFO_9901PlKz6e-26">
          <mxGeometry width="160" relative="1" as="geometry">
            <mxPoint x="315" y="230" as="sourcePoint" />
            <mxPoint x="260" y="210" as="targetPoint" />
            <Array as="points" />
          </mxGeometry>
        </mxCell>
        <mxCell id="rFmdBpEFO_9901PlKz6e-29" value="Manage Bug" style="ellipse;whiteSpace=wrap;html=1;fillColor=#dae8fc;strokeColor=#6c8ebf;" vertex="1" parent="1">
          <mxGeometry x="235" y="326" width="160" height="30" as="geometry" />
        </mxCell>
        <mxCell id="rFmdBpEFO_9901PlKz6e-30" value="&amp;lt;&amp;lt;extend&amp;gt;&amp;gt;" style="html=1;verticalAlign=bottom;labelBackgroundColor=none;endArrow=open;endFill=0;dashed=1;rounded=0;exitX=0.638;exitY=-0.011;exitDx=0;exitDy=0;exitPerimeter=0;entryX=0.581;entryY=0.941;entryDx=0;entryDy=0;entryPerimeter=0;" edge="1" parent="1" target="rFmdBpEFO_9901PlKz6e-26" source="rFmdBpEFO_9901PlKz6e-29">
          <mxGeometry x="-0.0111" width="160" relative="1" as="geometry">
            <mxPoint x="325" y="426" as="sourcePoint" />
            <mxPoint x="380" y="320" as="targetPoint" />
            <Array as="points" />
            <mxPoint as="offset" />
          </mxGeometry>
        </mxCell>
        <mxCell id="rFmdBpEFO_9901PlKz6e-31" value="" style="endArrow=none;html=1;rounded=0;exitX=0;exitY=0.5;exitDx=0;exitDy=0;exitPerimeter=0;" edge="1" parent="1" source="rFmdBpEFO_9901PlKz6e-26">
          <mxGeometry width="50" height="50" relative="1" as="geometry">
            <mxPoint x="220" y="290" as="sourcePoint" />
            <mxPoint x="120" y="170" as="targetPoint" />
            <Array as="points" />
          </mxGeometry>
        </mxCell>
        <mxCell id="rFmdBpEFO_9901PlKz6e-32" value="" style="endArrow=none;html=1;rounded=0;entryX=0;entryY=0.5;entryDx=0;entryDy=0;" edge="1" parent="1" target="rFmdBpEFO_9901PlKz6e-27">
          <mxGeometry width="50" height="50" relative="1" as="geometry">
            <mxPoint x="130" y="160" as="sourcePoint" />
            <mxPoint x="180" y="110" as="targetPoint" />
            <Array as="points" />
          </mxGeometry>
        </mxCell>
        <mxCell id="rFmdBpEFO_9901PlKz6e-33" value="&lt;font style=&quot;font-size: 9px;&quot;&gt;&amp;lt;&amp;lt;initiate&amp;gt;&amp;gt;&lt;/font&gt;" style="text;html=1;align=center;verticalAlign=middle;resizable=0;points=[];autosize=1;strokeColor=none;fillColor=none;" vertex="1" parent="1">
          <mxGeometry x="120" y="130" width="70" height="30" as="geometry" />
        </mxCell>
        <mxCell id="rFmdBpEFO_9901PlKz6e-35" value="" style="endArrow=none;html=1;rounded=0;exitX=0.009;exitY=0.687;exitDx=0;exitDy=0;exitPerimeter=0;" edge="1" parent="1" source="rFmdBpEFO_9901PlKz6e-26" target="rFmdBpEFO_9901PlKz6e-3">
          <mxGeometry width="50" height="50" relative="1" as="geometry">
            <mxPoint x="200" y="326" as="sourcePoint" />
            <mxPoint x="90" y="243" as="targetPoint" />
            <Array as="points" />
          </mxGeometry>
        </mxCell>
        <mxCell id="rFmdBpEFO_9901PlKz6e-36" value="&lt;font style=&quot;font-size: 9px;&quot;&gt;&amp;lt;&amp;lt;initiate&amp;gt;&amp;gt;&lt;/font&gt;" style="text;html=1;align=center;verticalAlign=middle;resizable=0;points=[];autosize=1;strokeColor=none;fillColor=none;" vertex="1" parent="1">
          <mxGeometry x="110" y="315" width="70" height="30" as="geometry" />
        </mxCell>
        <mxCell id="rFmdBpEFO_9901PlKz6e-37" value="Assign To a specific Programmer" style="ellipse;whiteSpace=wrap;html=1;fillColor=#e1d5e7;strokeColor=#9673a6;" vertex="1" parent="1">
          <mxGeometry x="200" y="90" width="160" height="30" as="geometry" />
        </mxCell>
        <mxCell id="rFmdBpEFO_9901PlKz6e-38" value="Assign All Programmers" style="ellipse;whiteSpace=wrap;html=1;fillColor=#e1d5e7;strokeColor=#9673a6;" vertex="1" parent="1">
          <mxGeometry x="370" y="90" width="160" height="30" as="geometry" />
        </mxCell>
        <mxCell id="rFmdBpEFO_9901PlKz6e-39" value="&amp;lt;&amp;lt;extend&amp;gt;&amp;gt;" style="html=1;verticalAlign=bottom;labelBackgroundColor=none;endArrow=open;endFill=0;dashed=1;rounded=0;entryX=0.652;entryY=0.078;entryDx=0;entryDy=0;entryPerimeter=0;" edge="1" parent="1" target="rFmdBpEFO_9901PlKz6e-27">
          <mxGeometry width="160" relative="1" as="geometry">
            <mxPoint x="431" y="120" as="sourcePoint" />
            <mxPoint x="380" y="148" as="targetPoint" />
            <Array as="points" />
          </mxGeometry>
        </mxCell>
        <mxCell id="rFmdBpEFO_9901PlKz6e-40" value="&amp;lt;&amp;lt;extend&amp;gt;&amp;gt;" style="html=1;verticalAlign=bottom;labelBackgroundColor=none;endArrow=open;endFill=0;dashed=1;rounded=0;" edge="1" parent="1" target="rFmdBpEFO_9901PlKz6e-27">
          <mxGeometry width="160" relative="1" as="geometry">
            <mxPoint x="288.5" y="120" as="sourcePoint" />
            <mxPoint x="251.5" y="152" as="targetPoint" />
            <Array as="points" />
          </mxGeometry>
        </mxCell>
        <mxCell id="rFmdBpEFO_9901PlKz6e-41" value="Refuse it(Only if it was assigned only to you)" style="ellipse;whiteSpace=wrap;html=1;fillColor=#e1d5e7;strokeColor=#9673a6;" vertex="1" parent="1">
          <mxGeometry x="340" y="390" width="190" height="50" as="geometry" />
        </mxCell>
        <mxCell id="rFmdBpEFO_9901PlKz6e-42" value="Accept It/Change status to In progress" style="ellipse;whiteSpace=wrap;html=1;fillColor=#e1d5e7;strokeColor=#9673a6;" vertex="1" parent="1">
          <mxGeometry x="130" y="390" width="170" height="40" as="geometry" />
        </mxCell>
        <mxCell id="rFmdBpEFO_9901PlKz6e-43" value="&amp;lt;&amp;lt;extend&amp;gt;&amp;gt;" style="html=1;verticalAlign=bottom;labelBackgroundColor=none;endArrow=open;endFill=0;dashed=1;rounded=0;exitX=0.638;exitY=-0.011;exitDx=0;exitDy=0;exitPerimeter=0;entryX=1;entryY=1;entryDx=0;entryDy=0;" edge="1" parent="1" target="rFmdBpEFO_9901PlKz6e-29">
          <mxGeometry x="-0.0111" width="160" relative="1" as="geometry">
            <mxPoint x="408" y="390" as="sourcePoint" />
            <mxPoint x="400" y="336" as="targetPoint" />
            <Array as="points" />
            <mxPoint as="offset" />
          </mxGeometry>
        </mxCell>
        <mxCell id="rFmdBpEFO_9901PlKz6e-44" value="&amp;lt;&amp;lt;extend&amp;gt;&amp;gt;" style="html=1;verticalAlign=bottom;labelBackgroundColor=none;endArrow=open;endFill=0;dashed=1;rounded=0;exitX=0.75;exitY=0;exitDx=0;exitDy=0;exitPerimeter=0;entryX=0.454;entryY=0.926;entryDx=0;entryDy=0;entryPerimeter=0;" edge="1" parent="1" source="rFmdBpEFO_9901PlKz6e-42" target="rFmdBpEFO_9901PlKz6e-29">
          <mxGeometry x="-0.0111" width="160" relative="1" as="geometry">
            <mxPoint x="357" y="346" as="sourcePoint" />
            <mxPoint x="349" y="292" as="targetPoint" />
            <Array as="points" />
            <mxPoint as="offset" />
          </mxGeometry>
        </mxCell>
        <mxCell id="rFmdBpEFO_9901PlKz6e-45" value="&amp;lt;&amp;lt;include&amp;gt;&amp;gt;" style="html=1;verticalAlign=bottom;labelBackgroundColor=none;endArrow=open;endFill=0;dashed=1;rounded=0;exitX=1;exitY=0.5;exitDx=0;exitDy=0;" edge="1" parent="1">
          <mxGeometry width="160" relative="1" as="geometry">
            <mxPoint x="400" y="250.39" as="sourcePoint" />
            <mxPoint x="575" y="70" as="targetPoint" />
            <Array as="points">
              <mxPoint x="575" y="249.39" />
            </Array>
          </mxGeometry>
        </mxCell>
      </root>
    </mxGraphModel>
  </diagram>
</mxfile>
